<svg width="65" height="65" viewBox="0 0 65 65" fill="none" xmlns="http://www.w3.org/2000/svg">
<g id="warning (1) 3" clip-path="url(#clip0_318_2031)">
<path id="Vector" d="M57.5081 61.6518H7.49109C4.78063 61.6518 2.35651 60.256 1.00657 57.9177C-0.338069 55.5888 -0.335129 52.8031 1.01304 50.4672L26.0221 7.16988C27.3709 4.83395 29.7874 3.43933 32.4861 3.43933C35.1959 3.43933 37.623 4.84042 38.9788 7.18811L63.9861 50.4672C65.3355 52.8031 65.3378 55.5888 63.9938 57.9177C62.6421 60.2565 60.2191 61.6518 57.5081 61.6518ZM32.4855 5.49481C30.5299 5.49481 28.7784 6.50549 27.8013 8.19821L2.79218 51.4949C1.8156 53.1882 1.81324 55.2049 2.78571 56.8905C3.76406 58.5856 5.52321 59.5975 7.4905 59.5975H57.5075C59.4748 59.5975 61.2339 58.5856 62.2123 56.8905C63.1853 55.2049 63.183 53.1882 62.2052 51.4949L37.1973 8.21584C37.1973 8.21584 37.1973 8.21584 37.1967 8.21584C36.2142 6.51196 34.4522 5.49481 32.4855 5.49481Z" fill="white"/>
<path id="Vector_2" d="M33.0734 54.4593C30.7692 54.4593 28.8937 52.5849 28.8937 50.2796C28.8937 47.9742 30.7687 46.0992 33.0734 46.0992C35.3782 46.0992 37.2532 47.9742 37.2532 50.2796C37.2532 52.5849 35.3782 54.4593 33.0734 54.4593ZM33.0734 48.1547C31.9022 48.1547 30.9492 49.1078 30.9492 50.2802C30.9492 51.4508 31.9016 52.4044 33.0734 52.4044C34.2452 52.4044 35.1983 51.4514 35.1983 50.2802C35.1983 49.1078 34.2446 48.1547 33.0734 48.1547Z" fill="white"/>
<path id="Vector_3" d="M33.0734 42.8997C31.4066 42.8997 30.0026 41.5973 29.8773 39.9352L28.6038 23.0593C28.5098 21.8187 28.9413 20.5846 29.7868 19.6732C30.6323 18.7613 31.8305 18.2386 33.0734 18.2386C34.317 18.2386 35.5152 18.7613 36.3607 19.6732C37.2061 20.5846 37.6371 21.8187 37.5436 23.0593L36.2701 39.9352C36.1443 41.5973 34.7403 42.8997 33.0734 42.8997ZM33.0734 20.2941C32.3902 20.2941 31.7576 20.5699 31.2931 21.0708C30.8286 21.5729 30.6011 22.2238 30.6528 22.9052L31.9263 39.7812C31.9716 40.3768 32.4749 40.8442 33.0728 40.8442C33.6714 40.8442 34.1753 40.3768 34.2199 39.7812L35.4934 22.9052C35.5452 22.2238 35.3176 21.5723 34.8532 21.0708C34.3893 20.5699 33.7566 20.2941 33.0734 20.2941Z" fill="white"/>
</g>
<defs>
<clipPath id="clip0_318_2031">
<rect width="65" height="65" fill="white"/>
</clipPath>
</defs>
</svg>
